# xmcd CD database file
#
# Track frame offsets:
#	150
#	37060
#	47805
#	63053
#	89563
#	103763
#	117255
#	138770
#	151393
#	176330
#	194545
#	230833
#	245793
#	255988
#	271868
#	301535
#	332493
#
# Disc length: 4598 seconds
#
# Revision: 2
# Processed by: cddbd v1.5.2PL0 Copyright (c) Steve Scherf et al.
# Submitted via: CDex 1.70beta2
#
DISCID=e511f411
DTITLE=Various Artist - This Is Bossa Nova DISK2
DYEAR=2013
DGENRE=Jazz
TTITLE0=Recado Bossa Nova (Rudy Van Gelder Edition - 2005 Digital Remaster)
TTITLE1=Minha Saudades (24-Bit Mastering)
TTITLE2=Chega De Saudade
TTITLE3=Desafinado
TTITLE4=The Dolphin - After
TTITLE5=Aconteceu (2003 Digital Remaster)
TTITLE6=Quiet Nights
TTITLE7=One Note Samba (Samba De Una Nota So)
TTITLE8=Morning Of The Carnival (From "Black Orpheus")
TTITLE9=Favela (Rudy Van Gelder Edition/2007 Digital Remaster)
TTITLE10=Blue Bossa (Rudy Van Gelder Edition - 1999 Remaster - 24 Bit Mastering)
TTITLE11=How Insensitive
TTITLE12=Little Boat (Single Version)
TTITLE13=Sandalia Dela (Rudy Van Gelder Edition - 2004 Digital Remaster - 24 Bit Mastering)
TTITLE14=Saudade
TTITLE15=Book's Bossa (Rudy Van Gelder Edition) [2002 - Remaster] (24 Bit Mastering)
TTITLE16=Soul Bossa Nova
EXTD=YEAR: 2013
EXTT0=
EXTT1=
EXTT2=
EXTT3=
EXTT4=
EXTT5=
EXTT6=
EXTT7=
EXTT8=
EXTT9=
EXTT10=
EXTT11=
EXTT12=
EXTT13=
EXTT14=
EXTT15=
EXTT16=
PLAYORDER=
